<svg width="774" height="197" viewBox="0 0 774 197" fill="none" xmlns="http://www.w3.org/2000/svg">
<rect width="774" height="197" fill="#F5F5F5"/>
<path d="M8.96 49.856C8.96 48.6613 9.216 47.808 9.728 47.296C10.3253 46.6987 11.2213 46.4 12.416 46.4H45.184C55.5947 46.4 64.4693 48.192 71.808 51.776C79.232 55.36 84.864 60.4373 88.704 67.008C92.544 73.5787 94.464 81.3013 94.464 90.176C94.464 99.4773 92.416 107.584 88.32 114.496C84.3093 121.323 78.4213 126.613 70.656 130.368C62.976 134.123 53.7173 136 42.88 136H12.416C11.2213 136 10.3253 135.744 9.728 135.232C9.216 134.635 8.96 133.739 8.96 132.544V49.856ZM42.88 114.112C51.584 114.112 58.1547 112.064 62.592 107.968C67.1147 103.872 69.376 98.1547 69.376 90.816C69.376 86.208 68.3947 82.24 66.432 78.912C64.4693 75.4987 61.5253 72.896 57.6 71.104C53.76 69.2267 49.024 68.288 43.392 68.288H35.328C34.4747 68.288 33.92 68.4587 33.664 68.8C33.408 69.056 33.28 69.568 33.28 70.336V112.064C33.28 112.832 33.408 113.387 33.664 113.728C33.92 113.984 34.4747 114.112 35.328 114.112H42.88ZM138.085 51.008C139.365 48.5333 140.474 46.8267 141.413 45.888C142.437 44.864 143.589 44.352 144.869 44.352C146.064 44.352 147.13 44.864 148.069 45.888C149.093 46.8267 150.245 48.5333 151.525 51.008L192.357 131.776C192.869 132.629 193.125 133.397 193.125 134.08C193.125 135.36 192.144 136 190.181 136H99.557C97.5943 136 96.613 135.36 96.613 134.08C96.613 133.312 96.8263 132.544 97.253 131.776L138.085 51.008ZM144.357 84.16L130.149 114.88H158.693L144.357 84.16ZM201.46 49.856C201.46 48.6613 201.716 47.808 202.228 47.296C202.825 46.6987 203.721 46.4 204.916 46.4H222.196C223.476 46.4 224.372 46.6987 224.884 47.296C225.481 47.808 225.78 48.6613 225.78 49.856V77.248C225.78 78.016 225.908 78.5707 226.164 78.912C226.42 79.168 226.975 79.296 227.828 79.296H254.452C255.22 79.296 255.732 79.168 255.988 78.912C256.329 78.5707 256.5 78.016 256.5 77.248V49.856C256.5 47.552 257.695 46.4 260.084 46.4H277.364C279.753 46.4 280.948 47.552 280.948 49.856V132.544C280.948 134.848 279.753 136 277.364 136H260.084C257.695 136 256.5 134.848 256.5 132.544V103.488C256.5 102.72 256.329 102.208 255.988 101.952C255.732 101.611 255.22 101.44 254.452 101.44H227.828C226.975 101.44 226.42 101.611 226.164 101.952C225.908 102.208 225.78 102.72 225.78 103.488V132.544C225.78 133.739 225.481 134.635 224.884 135.232C224.372 135.744 223.476 136 222.196 136H204.916C203.721 136 202.825 135.744 202.228 135.232C201.716 134.635 201.46 133.739 201.46 132.544V49.856ZM294.355 91.456C294.355 82.4107 296.403 74.3467 300.499 67.264C304.68 60.1813 310.44 54.6347 317.779 50.624C325.118 46.6133 333.395 44.608 342.611 44.608C351.912 44.608 360.232 46.6133 367.571 50.624C374.91 54.5493 380.627 60.0533 384.723 67.136C388.904 74.2187 390.995 82.24 390.995 91.2C390.995 100.245 388.904 108.309 384.723 115.392C380.627 122.389 374.867 127.893 367.443 131.904C360.104 135.829 351.742 137.792 342.355 137.792C333.224 137.792 324.99 135.829 317.651 131.904C310.398 127.979 304.68 122.517 300.499 115.52C296.403 108.437 294.355 100.416 294.355 91.456ZM342.483 115.52C346.92 115.52 350.974 114.539 354.643 112.576C358.312 110.528 361.214 107.669 363.347 104C365.566 100.331 366.675 96.1067 366.675 91.328C366.675 86.5493 365.608 82.3253 363.475 78.656C361.342 74.9013 358.44 72.0427 354.771 70.08C351.102 68.032 347.048 67.008 342.611 67.008C338.174 67.008 334.12 68.032 330.451 70.08C326.867 72.0427 324.008 74.8587 321.875 78.528C319.742 82.1973 318.675 86.464 318.675 91.328C318.675 96.1067 319.699 100.331 321.747 104C323.88 107.669 326.739 110.528 330.323 112.576C333.992 114.539 338.046 115.52 342.483 115.52ZM342.611 102.848C340.478 102.848 338.515 102.379 336.723 101.44C335.016 100.416 333.651 99.008 332.627 97.216C331.603 95.424 331.091 93.4187 331.091 91.2C331.091 88.9813 331.603 86.976 332.627 85.184C333.651 83.392 335.016 81.984 336.723 80.96C338.515 79.936 340.478 79.424 342.611 79.424C344.83 79.424 346.792 79.936 348.499 80.96C350.291 81.984 351.699 83.392 352.723 85.184C353.747 86.976 354.259 88.9813 354.259 91.2C354.259 93.4187 353.747 95.424 352.723 97.216C351.699 99.008 350.291 100.416 348.499 101.44C346.792 102.379 344.83 102.848 342.611 102.848ZM404.46 49.856C404.46 48.6613 404.716 47.808 405.228 47.296C405.825 46.6987 406.721 46.4 407.916 46.4H438.636C452.289 46.4 462.444 48.8747 469.1 53.824C475.756 58.688 479.084 66.2827 479.084 76.608C479.084 87.2747 474.177 94.9973 464.364 99.776L483.692 131.904C484.204 132.757 484.46 133.483 484.46 134.08C484.46 135.36 483.393 136 481.26 136H462.956C461.079 136 459.671 135.744 458.732 135.232C457.879 134.72 456.983 133.653 456.044 132.032L436.204 96.832C435.777 95.9787 435.564 95.3387 435.564 94.912C435.564 93.9733 436.46 93.3333 438.252 92.992C442.945 92.3947 446.743 90.9867 449.644 88.768C452.545 86.464 453.996 83.3067 453.996 79.296C453.996 75.0293 452.588 71.9147 449.772 69.952C447.041 67.904 442.903 66.88 437.356 66.88H430.828C429.975 66.88 429.42 67.008 429.164 67.264C428.908 67.52 428.78 68.0747 428.78 68.928V132.544C428.78 133.739 428.481 134.635 427.884 135.232C427.372 135.744 426.476 136 425.196 136H407.916C406.721 136 405.825 135.744 405.228 135.232C404.716 134.635 404.46 133.739 404.46 132.544V49.856ZM493.835 49.984C493.835 46.656 494.902 44.992 497.035 44.992C497.803 44.992 498.614 45.2907 499.467 45.888C500.32 46.4853 501.387 47.4667 502.667 48.832L539.787 88.128L576.779 48.832C578.23 47.3813 579.339 46.4 580.107 45.888C580.875 45.2907 581.643 44.992 582.411 44.992C584.63 44.992 585.739 46.656 585.739 49.984V132.544C585.739 134.848 584.544 136 582.155 136H564.875C562.486 136 561.291 134.848 561.291 132.544V97.088L544.523 115.648C543.328 116.928 542.39 117.824 541.707 118.336C541.024 118.763 540.342 118.976 539.659 118.976C538.976 118.976 538.294 118.763 537.611 118.336C536.928 117.824 536.032 116.928 534.923 115.648L518.155 97.088V132.544C518.155 133.739 517.856 134.635 517.259 135.232C516.747 135.744 515.851 136 514.571 136H497.291C496.096 136 495.2 135.744 494.603 135.232C494.091 134.635 493.835 133.739 493.835 132.544V49.984ZM599.873 55.232C598.678 53.696 597.825 52.4587 597.313 51.52C596.886 50.5813 596.673 49.7707 596.673 49.088C596.673 47.296 597.996 46.4 600.641 46.4H663.233C665.537 46.4 666.689 47.552 666.689 49.856V64.064C666.689 65.344 666.39 66.24 665.793 66.752C665.281 67.264 664.428 67.52 663.233 67.52H636.225L648.513 84.544C649.452 85.824 650.092 86.848 650.433 87.616C650.86 88.384 651.073 89.1093 651.073 89.792C651.073 90.4747 650.902 91.2 650.561 91.968C650.22 92.736 649.58 93.76 648.641 95.04L634.689 114.88H663.489C664.684 114.88 665.537 115.136 666.049 115.648C666.646 116.16 666.945 117.056 666.945 118.336V132.544C666.945 133.739 666.646 134.635 666.049 135.232C665.537 135.744 664.684 136 663.489 136H599.617C597.057 136 595.777 135.104 595.777 133.312C595.777 132.629 595.99 131.861 596.417 131.008C596.929 130.069 597.74 128.789 598.849 127.168L624.833 89.92L599.873 55.232ZM681.365 109.376C682.133 108.096 682.986 107.456 683.925 107.456C684.608 107.456 685.461 107.84 686.485 108.608C689.642 110.912 693.098 112.789 696.853 114.24C700.608 115.605 704.362 116.288 708.117 116.288C711.872 116.288 714.688 115.733 716.565 114.624C718.528 113.429 719.509 111.851 719.509 109.888C719.509 108.523 719.04 107.371 718.101 106.432C717.162 105.493 715.626 104.683 713.493 104C711.445 103.232 708.373 102.336 704.277 101.312C697.962 99.776 692.757 97.8987 688.661 95.68C684.565 93.376 681.408 90.432 679.189 86.848C677.056 83.264 675.989 78.8693 675.989 73.664C675.989 67.6053 677.44 62.4 680.341 58.048C683.328 53.6107 687.424 50.2827 692.629 48.064C697.834 45.76 703.808 44.608 710.549 44.608C722.666 44.608 733.418 48.4053 742.805 56C743.829 56.768 744.341 57.664 744.341 58.688C744.341 59.5413 744.042 60.3947 743.445 61.248L735.765 73.024C734.997 74.1333 734.186 74.688 733.333 74.688C732.48 74.688 731.669 74.3467 730.901 73.664C723.989 68.6293 717.29 66.112 710.805 66.112C707.733 66.112 705.344 66.7093 703.637 67.904C701.93 69.0133 701.077 70.5067 701.077 72.384C701.077 73.8347 701.546 75.0293 702.485 75.968C703.424 76.9067 704.832 77.7173 706.709 78.4C708.586 78.9973 711.402 79.7653 715.157 80.704C721.898 82.3253 727.402 84.3307 731.669 86.72C735.936 89.024 739.136 91.968 741.269 95.552C743.488 99.0507 744.597 103.317 744.597 108.352C744.597 114.411 743.104 119.659 740.117 124.096C737.13 128.533 732.906 131.947 727.445 134.336C721.984 136.64 715.626 137.792 708.373 137.792C701.802 137.792 695.701 136.811 690.069 134.848C684.437 132.8 679.402 130.027 674.965 126.528C674.282 126.016 673.77 125.547 673.429 125.12C673.088 124.608 672.917 124.053 672.917 123.456C672.917 122.603 673.301 121.621 674.069 120.512L681.365 109.376Z" fill="#FFB800"/>
<path d="M78.9927 185V160.16H88.7127C94.7127 160.16 97.7127 163.16 97.7127 169.16V176C97.7127 182 94.7127 185 88.7127 185H78.9927ZM82.0167 182.264H88.8927C92.7567 182.264 94.6887 180.332 94.6887 176.468V168.692C94.6887 164.828 92.7567 162.896 88.8927 162.896H82.0167V182.264ZM132.261 185V160.16H148.461V162.896H135.285V170.6H147.381V173.336H135.285V182.264H148.461V185H132.261ZM181.216 183.74V182.264H192.304C193.936 182.264 194.752 181.448 194.752 179.816V176.9C194.752 175.532 194.14 174.728 192.916 174.488L185.176 172.904C182.536 172.376 181.216 170.612 181.216 167.612V165.668C181.216 161.996 183.052 160.16 186.724 160.16H195.436L197.056 161.42V162.896H186.688C185.056 162.896 184.24 163.712 184.24 165.344V167.792C184.24 169.16 184.852 169.964 186.076 170.204L193.816 171.752C196.456 172.28 197.776 174.056 197.776 177.08V179.492C197.776 183.164 195.94 185 192.268 185H182.836L181.216 183.74ZM231.979 185V160.16H235.003V185H231.979ZM269.911 179.492V165.668C269.911 161.996 271.747 160.16 275.419 160.16H286.291L287.911 161.42V162.896H275.383C273.751 162.896 272.935 163.712 272.935 165.344V179.816C272.935 181.448 273.751 182.264 275.383 182.264H285.607V173.336H279.487V170.6H288.631V185H275.419C271.747 185 269.911 183.164 269.911 179.492ZM323.188 185V160.16H326.536L339.604 180.32V160.16H342.628V185H339.28L326.212 164.84V185H323.188ZM414.267 183.74V182.264H425.355C426.987 182.264 427.803 181.448 427.803 179.816V176.9C427.803 175.532 427.191 174.728 425.967 174.488L418.227 172.904C415.587 172.376 414.267 170.612 414.267 167.612V165.668C414.267 161.996 416.103 160.16 419.775 160.16H428.487L430.107 161.42V162.896H419.739C418.107 162.896 417.291 163.712 417.291 165.344V167.792C417.291 169.16 417.903 169.964 419.127 170.204L426.867 171.752C429.507 172.28 430.827 174.056 430.827 177.08V179.492C430.827 183.164 428.991 185 425.319 185H415.887L414.267 183.74ZM462.653 162.896V160.16H482.237V162.896H473.957V185H470.933V162.896H462.653ZM514.918 179.492V160.16H517.942V179.816C517.942 181.448 518.758 182.264 520.39 182.264H528.166C529.798 182.264 530.614 181.448 530.614 179.816V160.16H533.638V179.492C533.638 183.164 531.802 185 528.13 185H520.426C516.754 185 514.918 183.164 514.918 179.492ZM568.719 185V160.16H578.439C584.439 160.16 587.439 163.16 587.439 169.16V176C587.439 182 584.439 185 578.439 185H568.719ZM571.743 182.264H578.619C582.483 182.264 584.415 180.332 584.415 176.468V168.692C584.415 164.828 582.483 162.896 578.619 162.896H571.743V182.264ZM621.988 185V160.16H625.012V185H621.988ZM659.92 179.492V165.668C659.92 161.996 661.756 160.16 665.428 160.16H673.852C677.524 160.16 679.36 161.996 679.36 165.668V179.492C679.36 183.164 677.524 185 673.852 185H665.428C661.756 185 659.92 183.164 659.92 179.492ZM662.944 179.816C662.944 181.448 663.76 182.264 665.392 182.264H673.888C675.52 182.264 676.336 181.448 676.336 179.816V165.344C676.336 163.712 675.52 162.896 673.888 162.896H665.392C663.76 162.896 662.944 163.712 662.944 165.344V179.816Z" fill="#FFB800"/>
</svg>
